<svg width="513" height="513" viewBox="0 0 513 513" fill="none" xmlns="http://www.w3.org/2000/svg">
<path fill-rule="evenodd" clip-rule="evenodd" d="M14.2262 1.08483C9.67018 2.39783 2.44918 9.84683 1.13118 14.5958C-0.464821 20.3428 -0.332821 107.933 1.28018 113.331C2.86718 118.644 9.35318 125.13 14.6662 126.717C20.5142 128.465 107.586 128.465 113.434 126.717C118.747 125.13 125.233 118.644 126.82 113.331C128.568 107.483 128.568 20.4108 126.82 14.5628C125.233 9.24983 118.747 2.76383 113.434 1.17683C108.376 -0.334173 19.4392 -0.417173 14.2262 1.08483ZM206.226 1.08483C201.67 2.39783 194.449 9.84683 193.131 14.5958C191.535 20.3428 191.667 107.933 193.28 113.331C194.867 118.644 201.353 125.13 206.666 126.717C212.514 128.465 299.586 128.465 305.434 126.717C310.747 125.13 317.233 118.644 318.82 113.331C320.568 107.483 320.568 20.4108 318.82 14.5628C317.233 9.24983 310.747 2.76383 305.434 1.17683C300.376 -0.334173 211.439 -0.417173 206.226 1.08483ZM398.226 1.08483C393.67 2.39783 386.449 9.84683 385.131 14.5958C383.535 20.3428 383.667 107.933 385.28 113.331C386.867 118.644 393.353 125.13 398.666 126.717C404.514 128.465 491.586 128.465 497.434 126.717C502.747 125.13 509.233 118.644 510.82 113.331C512.568 107.483 512.568 20.4108 510.82 14.5628C509.233 9.24983 502.747 2.76383 497.434 1.17683C492.376 -0.334173 403.439 -0.417173 398.226 1.08483ZM14.2262 193.085C9.67018 194.398 2.44918 201.847 1.13118 206.596C-0.464821 212.343 -0.332821 299.933 1.28018 305.331C2.86718 310.644 9.35318 317.13 14.6662 318.717C20.5142 320.465 107.586 320.465 113.434 318.717C118.747 317.13 125.233 310.644 126.82 305.331C128.568 299.483 128.568 212.411 126.82 206.563C125.233 201.25 118.747 194.764 113.434 193.177C108.376 191.666 19.4392 191.583 14.2262 193.085ZM206.226 193.085C201.67 194.398 194.449 201.847 193.131 206.596C191.535 212.343 191.667 299.933 193.28 305.331C194.867 310.644 201.353 317.13 206.666 318.717C212.514 320.465 299.586 320.465 305.434 318.717C310.747 317.13 317.233 310.644 318.82 305.331C320.568 299.483 320.568 212.411 318.82 206.563C317.233 201.25 310.747 194.764 305.434 193.177C300.376 191.666 211.439 191.583 206.226 193.085ZM398.226 193.085C393.67 194.398 386.449 201.847 385.131 206.596C383.535 212.343 383.667 299.933 385.28 305.331C386.867 310.644 393.353 317.13 398.666 318.717C404.514 320.465 491.586 320.465 497.434 318.717C502.747 317.13 509.233 310.644 510.82 305.331C512.568 299.483 512.568 212.411 510.82 206.563C509.233 201.25 502.747 194.764 497.434 193.177C492.376 191.666 403.439 191.583 398.226 193.085ZM14.2262 385.085C9.67018 386.398 2.44918 393.847 1.13118 398.596C-0.464821 404.343 -0.332821 491.933 1.28018 497.331C2.86718 502.644 9.35318 509.13 14.6662 510.717C20.5142 512.465 107.586 512.465 113.434 510.717C118.747 509.13 125.233 502.644 126.82 497.331C128.568 491.483 128.568 404.411 126.82 398.563C125.233 393.25 118.747 386.764 113.434 385.177C108.376 383.666 19.4392 383.583 14.2262 385.085ZM206.226 385.085C201.67 386.398 194.449 393.847 193.131 398.596C191.535 404.343 191.667 491.933 193.28 497.331C194.867 502.644 201.353 509.13 206.666 510.717C212.514 512.465 299.586 512.465 305.434 510.717C310.747 509.13 317.233 502.644 318.82 497.331C320.568 491.483 320.568 404.411 318.82 398.563C317.233 393.25 310.747 386.764 305.434 385.177C300.376 383.666 211.439 383.583 206.226 385.085ZM398.226 385.085C393.67 386.398 386.449 393.847 385.131 398.596C383.535 404.343 383.667 491.933 385.28 497.331C386.867 502.644 393.353 509.13 398.666 510.717C404.514 512.465 491.586 512.465 497.434 510.717C502.747 509.13 509.233 502.644 510.82 497.331C512.568 491.483 512.568 404.411 510.82 398.563C509.233 393.25 502.747 386.764 497.434 385.177C492.376 383.666 403.439 383.583 398.226 385.085Z" fill="#FFBA00"/>
</svg>
