<?xml version="1.0" standalone="no"?>
<!DOCTYPE svg PUBLIC "-//W3C//DTD SVG 20010904//EN"
 "http://www.w3.org/TR/2001/REC-SVG-20010904/DTD/svg10.dtd">
<svg version="1.0" xmlns="http://www.w3.org/2000/svg"
 width="512.000000pt" height="512.000000pt" viewBox="0 0 512.000000 512.000000"
 preserveAspectRatio="xMidYMid meet">
<metadata>
Created by potrace 1.16, written by Peter Selinger 2001-2019
</metadata>
<g transform="translate(0.000000,512.000000) scale(0.100000,-0.100000)"
fill="#000000" stroke="none">
<path d="M115 4051 c-43 -11 -71 -27 -94 -57 -74 -94 49 -515 293 -1003 170
-338 426 -746 655 -1041 153 -198 394 -420 606 -560 362 -238 788 -358 1147
-322 181 18 249 53 269 138 4 22 9 176 9 344 1 208 5 316 13 340 14 40 62 70
113 70 149 0 406 -184 710 -507 250 -266 320 -332 382 -361 l57 -27 365 0 365
0 43 25 c55 31 72 64 72 137 -1 166 -199 434 -700 948 -177 181 -220 237 -220
284 0 35 36 96 157 269 236 337 455 685 557 889 136 272 140 390 15 427 -78
24 -671 23 -750 0 -81 -24 -122 -73 -192 -229 -190 -423 -474 -865 -687 -1072
-85 -82 -141 -120 -188 -129 -40 -8 -57 0 -86 40 -21 27 -21 42 -26 659 -5
694 -4 681 -66 722 -28 19 -52 20 -514 23 -432 2 -490 1 -528 -14 -53 -20 -82
-63 -82 -119 0 -43 12 -65 102 -187 55 -74 84 -145 104 -246 17 -90 20 -936 4
-1022 -13 -70 -32 -90 -85 -90 -193 0 -627 664 -885 1355 -91 244 -123 291
-216 314 -48 12 -669 14 -719 2z"/>
</g>
</svg>
