<svg width="193" height="50" viewBox="0 0 193 50" fill="none" xmlns="http://www.w3.org/2000/svg">
<path fill-rule="evenodd" clip-rule="evenodd" d="M23.5013 0.130386C23.4137 0.218007 23.3708 0.710141 23.3708 1.6306C23.3708 2.55105 23.4137 3.04318 23.5013 3.1308C23.7079 3.33746 24.2179 3.2893 24.3454 3.05101C24.4918 2.7776 24.4918 0.483588 24.3454 0.21018C24.2179 -0.0281139 23.7079 -0.0762727 23.5013 0.130386ZM45.4908 0.165717C44.0474 0.482935 42.4895 1.2151 41.0399 2.25764C40.3504 2.75358 39.9644 3.15331 39.1495 4.21617L38.1257 5.55158L33.6563 8.73517C27.1919 13.3398 26.8034 13.608 25.3038 14.501C22.7207 16.0392 20.9782 16.814 17.3373 18.0432C14.3076 19.066 12.9176 19.6396 10.4547 20.8834C4.65568 23.8123 1.53344 27.1333 0.354558 31.6267C-0.0231104 33.0663 -0.115516 35.7742 0.157244 37.4137C0.690372 40.6196 2.06776 43.2845 4.39389 45.6106C6.72155 47.9382 9.38469 49.3141 12.5965 49.8482C14.1935 50.1138 16.8771 50.0214 18.4803 49.6455C20.5149 49.1686 22.6247 48.227 24.1127 47.1316C24.4788 46.862 24.848 46.6682 24.9331 46.7009C25.1741 46.7934 26.6683 46.5547 27.4207 46.3036C30.5349 45.2638 33.1218 41.5639 34.1522 36.6757C34.3999 35.5007 34.4015 35.4368 34.4346 25.5178L34.4681 15.5416L38.1584 12.7715C41.6583 10.1443 41.873 10.0013 42.3198 10.0013C43.0793 10.0013 43.8908 9.70433 44.3899 9.24383C45.1286 8.56221 45.5411 7.61425 45.7988 6.00577C45.921 5.24371 46.0348 4.60188 46.0518 4.57948C46.0688 4.55709 46.2352 4.66711 46.4218 4.82408C46.6082 4.98095 46.8916 5.13793 47.0514 5.17283C47.2112 5.20772 47.4037 5.25523 47.479 5.27849C47.7638 5.36644 48.7501 5.09771 49.0878 4.84006C49.8644 4.24781 50.2054 2.93045 49.8733 1.80627C49.6968 1.20912 48.7963 0.308563 48.1991 0.132126C47.6296 -0.0361586 46.3367 -0.0200694 45.4908 0.165717ZM48.0072 1.26348C48.9455 1.70876 49.2064 2.99046 48.5238 3.80166C48.2868 4.08322 48.1718 4.13094 47.7297 4.13094C47.111 4.13094 46.8699 3.91907 46.7867 3.30192C46.6829 2.53105 46.6344 2.39875 46.4125 2.27992C46.0644 2.0937 45.7815 2.2584 45.5067 2.80728C45.1143 3.59098 44.9247 4.29151 44.7364 5.65289C44.4471 7.74482 43.8205 8.68332 42.5994 8.85345C42.1383 8.9177 42.0751 8.89769 41.8384 8.61255C41.4464 8.14063 39.6718 5.61158 39.6574 5.50461C39.6234 5.2511 40.9812 3.67882 41.6824 3.1595C43.7714 1.61266 46.8182 0.699379 48.0072 1.26348ZM6.78917 2.39483C6.6311 2.56942 6.61099 2.67737 6.69274 2.91121C6.88212 3.45302 7.71616 3.33507 7.71616 2.76651C7.71616 2.2272 7.14727 1.99912 6.78917 2.39483ZM4.58523 4.58753C4.36867 4.80408 4.4276 5.30459 4.6859 5.44287C5.16586 5.69964 5.69377 5.1613 5.43536 4.67863C5.30208 4.42946 4.79733 4.37543 4.58523 4.58753ZM9.04246 4.58753C8.8259 4.80408 8.88482 5.30459 9.14313 5.44287C9.62309 5.69964 10.151 5.1613 9.89259 4.67863C9.75931 4.42946 9.25456 4.37543 9.04246 4.58753ZM19.044 4.58753C18.8374 4.79419 18.8855 5.30415 19.1238 5.43167C19.2395 5.49352 19.8787 5.54418 20.5443 5.54418C21.2098 5.54418 21.8491 5.49352 21.9647 5.43167C22.203 5.30415 22.2512 4.79419 22.0445 4.58753C21.8637 4.40674 19.2248 4.40674 19.044 4.58753ZM25.6592 4.66428C25.495 4.97128 25.5177 5.15957 25.7439 5.36427C25.9057 5.5107 26.186 5.54418 27.249 5.54418C28.4238 5.54418 28.5754 5.52201 28.755 5.3235C28.9133 5.14869 28.9332 5.04129 28.851 4.80712L28.7472 4.51143L27.2602 4.48121C25.8774 4.45316 25.7654 4.46599 25.6592 4.66428ZM39.9324 7.89962C40.45 8.62711 40.8736 9.24927 40.8736 9.28231C40.8736 9.35917 38.3155 11.2931 38.1089 11.3724C38.0021 11.4134 37.6446 10.9699 36.9593 9.94588C36.4122 9.12871 35.9808 8.44622 36.0003 8.42937C36.4676 8.02757 38.8701 6.43583 38.9206 6.49464C38.9594 6.53987 39.4148 7.17213 39.9324 7.89962ZM6.78917 6.85197C6.50282 7.16832 6.67958 7.65056 7.09965 7.69905C7.4933 7.74449 7.71616 7.55164 7.71616 7.16539C7.71616 6.65314 7.14411 6.45975 6.78917 6.85197ZM23.5611 6.7487C23.3947 6.84556 23.3708 7.04396 23.3708 8.32403C23.3708 9.77423 23.3734 9.78978 23.6381 9.91034C23.8522 10.008 23.9605 9.99611 24.1817 9.8512C24.4528 9.67356 24.4579 9.6453 24.4579 8.33066C24.4579 7.17104 24.4312 6.96699 24.2591 6.81121C24.033 6.60651 23.8356 6.58889 23.5611 6.7487ZM36.0913 10.6551C36.6471 11.4931 37.0821 12.195 37.058 12.2151C36.7546 12.4678 34.4802 14.1323 34.4384 14.1323C34.3359 14.1323 32.3595 11.0867 32.4216 11.0245C32.5586 10.8876 34.9537 9.1461 35.0147 9.13914C35.051 9.13501 35.5355 9.81717 36.0913 10.6551ZM14.0433 9.58823C13.8462 9.78532 13.8836 10.3048 14.103 10.4176C14.2077 10.4714 14.5093 10.5429 14.7734 10.5765C16.2428 10.7638 17.0774 12.4667 16.3525 13.7985C15.6297 15.1266 13.9501 15.3712 12.8827 14.3038C12.4939 13.915 12.3872 13.7127 12.2471 13.0984C12.0801 12.3661 11.9536 12.1804 11.6195 12.1772C11.2574 12.1737 11.0511 12.5697 11.1187 13.1393C11.3682 15.2461 13.5923 16.6218 15.5521 15.8816C16.8639 15.3862 17.7177 14.1829 17.7177 12.8298C17.7177 12.4314 17.6358 11.8645 17.5355 11.5698C17.2878 10.8412 16.3343 9.88772 15.6057 9.63997C14.9796 9.42701 14.2293 9.40222 14.0433 9.58823ZM32.4483 13.2239C32.9865 14.0373 33.4421 14.7425 33.4608 14.7912C33.4914 14.8712 31.0932 16.7414 30.9601 16.7414C30.9292 16.7414 30.3504 16.0753 29.6737 15.2613C28.7312 14.1274 28.4796 13.7603 28.5977 13.6922C28.6826 13.6432 29.3392 13.1862 30.0567 12.6766C30.7742 12.167 31.3857 11.7489 31.4156 11.7475C31.4455 11.7462 31.9102 12.4106 32.4483 13.2239ZM1.32634 13.4319C0.914103 13.7205 1.02662 14.0262 1.84327 14.8366C2.54871 15.5366 2.62285 15.5819 2.90322 15.4839C3.12967 15.4048 3.21262 15.297 3.23697 15.0501C3.26469 14.7681 3.16229 14.6183 2.5137 13.9921C2.0981 13.591 1.71532 13.2627 1.66303 13.2627C1.61074 13.2627 1.45919 13.3389 1.32634 13.4319ZM43.6157 13.4319C43.2034 13.7205 43.3159 14.0262 44.1326 14.8366C44.838 15.5366 44.9122 15.5819 45.1925 15.4839C45.419 15.4048 45.5019 15.297 45.5263 15.0501C45.554 14.7681 45.4516 14.6183 44.803 13.9921C44.3874 13.591 44.0046 13.2627 43.9523 13.2627C43.9001 13.2627 43.7485 13.3389 43.6157 13.4319ZM5.12238 14.0625C4.55262 14.6374 4.44336 14.8062 4.47325 15.0661C4.49935 15.2935 4.59121 15.4072 4.81048 15.4839C5.09085 15.5819 5.165 15.5366 5.87043 14.8366C6.62186 14.0909 6.7709 13.7741 6.49858 13.5018C6.20081 13.2041 5.81901 13.3596 5.12238 14.0625ZM47.4117 14.0625C46.8419 14.6374 46.7327 14.8062 46.7626 15.0661C46.7887 15.2935 46.8805 15.4072 47.0998 15.4839C47.3802 15.5819 47.4543 15.5366 48.1598 14.8366C48.9112 14.0909 49.0602 13.7741 48.7879 13.5018C48.4901 13.2041 48.1083 13.3596 47.4117 14.0625ZM28.8304 15.9857L30.0567 17.4587L29.9958 26.5307C29.9365 35.3713 29.9288 35.6296 29.6957 36.6571C28.3031 42.7957 23.9466 47.2639 18.0439 48.6076C16.8447 48.8805 14.4711 48.987 13.2436 48.8228C7.91717 48.1105 3.48875 44.4743 1.79196 39.4198C1.357 38.1242 1.17817 37.1137 1.11457 35.5913C0.994442 32.717 1.58388 30.504 3.07303 28.2388C4.7583 25.6754 7.21891 23.7344 11.5085 21.5853C13.4539 20.6105 14.9295 20.0164 17.6248 19.1227C21.2562 17.9186 24.2292 16.552 26.6866 14.9572C27.1051 14.6857 27.4828 14.4746 27.5258 14.4881C27.5689 14.5017 28.1559 15.1756 28.8304 15.9857ZM33.3432 27.0146C33.305 35.2204 33.2995 35.4067 33.0603 36.4724C32.0446 40.9986 29.9319 44.1563 27.2415 45.1689C26.8439 45.3186 26.4451 45.441 26.3554 45.441C26.2594 45.441 26.5232 45.0501 26.9973 44.4898C28.9044 42.2357 29.9887 40.0864 30.74 37.0703L31.0244 35.9289L31.0616 26.9956L31.0989 18.0624L32.2084 17.2328L33.318 16.4032L33.35 17.5236C33.3676 18.1397 33.3645 22.4107 33.3432 27.0146ZM1.81555 17.3692C1.36472 17.8235 1.08467 18.1961 1.08467 18.3414C1.08467 18.5596 1.44321 18.9156 1.66303 18.9156C1.71532 18.9156 2.09581 18.5896 2.50849 18.1912C3.28926 17.4374 3.41678 17.1322 3.08814 16.8035C2.79429 16.5097 2.56904 16.6099 1.81555 17.3692ZM4.65383 16.7686C4.26529 17.0816 4.32519 17.282 5.02541 18.0115C5.88239 18.9042 6.0222 18.982 6.36453 18.7578C6.81156 18.4649 6.70361 18.1535 5.87859 17.3571C5.10716 16.6125 4.94463 16.5343 4.65383 16.7686ZM44.1244 17.3571C43.313 18.1405 43.1982 18.454 43.6157 18.7463C43.7485 18.8394 43.9001 18.9156 43.9523 18.9156C44.0046 18.9156 44.3851 18.5896 44.7978 18.1912C45.3748 17.6341 45.5482 17.3964 45.5482 17.1622C45.5482 16.8702 45.3029 16.6327 45.0013 16.6327C44.9317 16.6327 44.5371 16.9587 44.1244 17.3571ZM46.9149 16.8035C46.5862 17.1322 46.7138 17.4374 47.4945 18.1912C47.9072 18.5896 48.2877 18.9156 48.34 18.9156C48.5622 18.9156 48.9183 18.5585 48.9183 18.3357C48.9183 18.0508 47.542 16.6327 47.2655 16.6327C47.1667 16.6327 47.0089 16.7095 46.9149 16.8035ZM17.8207 21.4222C17.204 22.0822 16.6306 23.8078 16.6306 25.0034C16.6306 25.6797 16.9449 27.0564 17.2433 27.6878C17.5564 28.3499 18.0528 28.917 18.3193 28.917C18.8872 28.917 19.7014 27.3602 19.9208 25.8553C20.1435 24.3281 19.6547 22.3062 18.8589 21.4625C18.4259 21.0034 18.2193 20.9954 17.8207 21.4222ZM18.6507 23.4508C18.9262 24.2996 18.917 25.8181 18.6315 26.6133C18.5175 26.9307 18.3801 27.1998 18.326 27.2112C18.272 27.2226 18.1334 26.9629 18.0179 26.6341C17.7333 25.8226 17.7174 24.2974 17.9853 23.4815C18.3019 22.5171 18.3471 22.515 18.6507 23.4508ZM40.5326 24.6238C39.4086 24.9842 38.4805 25.8852 38.0456 27.0383C37.7075 27.9346 37.7756 29.1536 38.2134 30.0407C38.8147 31.2596 40.135 32.1462 41.4327 32.2027C41.9903 32.2269 42.2869 32.0414 42.2869 31.6684C42.2869 31.3812 41.8606 31.0912 41.4385 31.0912C40.8873 31.0912 39.9728 30.622 39.5651 30.1302C39.1364 29.6128 38.8723 28.7108 38.9521 28.0366C39.062 27.109 39.6612 26.2714 40.5475 25.8066C41.1018 25.5159 42.3095 25.5329 42.8848 25.8395C43.7941 26.3241 44.3464 27.1172 44.4384 28.0697C44.5015 28.7223 44.774 29.0026 45.1982 28.8511C45.4829 28.7496 45.4936 28.7176 45.4845 27.9888C45.4613 26.1068 43.8825 24.5807 41.8721 24.4969C41.3401 24.4748 40.8536 24.5208 40.5326 24.6238ZM10.7253 25.5473C9.87835 25.6535 9.79193 26.0295 10.3865 27.021C10.8881 27.8576 11.4011 28.3816 12.3167 28.9925C13.1771 29.5667 13.8143 29.8285 14.7742 30.0026C15.9434 30.2146 16.6318 29.9804 16.6295 29.3713C16.6282 29.0166 16.1998 28.0719 15.8061 27.5558C14.8141 26.2552 12.4696 25.3285 10.7253 25.5473ZM24.621 25.5599C22.7955 25.7768 21.0676 26.9255 20.3217 28.418C19.8254 29.4112 19.8904 29.828 20.5703 30.0111C21.4619 30.2512 23.0417 29.8368 24.2556 29.0444C25.8852 27.9807 27.1459 26.0371 26.442 25.6738C26.1518 25.5241 25.3466 25.4737 24.621 25.5599ZM12.6156 26.8064C13.6969 27.122 14.803 27.9096 15.1832 28.6344L15.3486 28.9496L14.8378 28.8796C13.9947 28.764 12.9863 28.2076 12.1332 27.3868C11.3657 26.6483 11.3613 26.6409 11.6916 26.6376C11.8751 26.6356 12.2909 26.7116 12.6156 26.8064ZM24.8723 27.0783C24.1595 27.965 22.2346 29.0059 21.5079 28.8974C21.2856 28.8643 21.2919 28.8405 21.6472 28.3735C22.3101 27.502 23.8906 26.6516 24.8707 26.6388L25.2292 26.6341L24.8723 27.0783ZM17.9654 30.14C17.7587 30.407 17.7366 30.6349 17.8952 30.8613C18.1162 31.1769 18.5397 31.1563 18.7605 30.8194C18.9254 30.5677 18.9254 30.5277 18.7605 30.2759C18.5685 29.9829 18.1431 29.9102 17.9654 30.14ZM3.47636 31.3086C3.35677 31.4282 3.25893 31.6085 3.25893 31.709C3.25893 31.8097 4.07645 32.7147 5.07574 33.7202C6.92995 35.5861 7.22076 35.7829 7.58571 35.4179C7.95065 35.053 7.75388 34.7622 5.88794 32.908C4.88245 31.9087 3.97742 31.0912 3.87675 31.0912C3.77619 31.0912 3.59594 31.1891 3.47636 31.3086ZM14.1302 31.2655C12.3665 31.7375 10.0042 33.8841 10.0001 35.0187C9.99881 35.4102 10.2091 35.5521 10.8959 35.6229C12.216 35.7593 14.1241 35.12 15.2078 34.1786C15.8595 33.6123 16.4936 32.6045 16.5862 31.9874C16.6517 31.5501 16.6305 31.4627 16.4163 31.2894C16.1109 31.042 15.0085 31.0305 14.1302 31.2655ZM20.233 31.2602C20.0177 31.4167 19.9852 31.5146 20.0321 31.8651C20.1637 32.8453 21.0344 34.019 22.1096 34.6653C23.2114 35.3277 24.0592 35.5793 25.229 35.5917C25.9667 35.5995 26.3247 35.559 26.4521 35.4536C27.2823 34.7659 25.0854 32.2188 22.969 31.4152C22.0987 31.0848 20.5917 30.9994 20.233 31.2602ZM15.3261 32.2832C15.3261 32.3963 14.7566 33.0863 14.402 33.403C13.7592 33.977 11.5211 34.7951 11.5211 34.4561C11.5211 34.2588 12.3981 33.3921 12.9673 33.0268C13.8204 32.4795 15.3261 32.0048 15.3261 32.2832ZM23.0409 32.6913C23.5814 32.9522 24.0877 33.3124 24.5563 33.7697C24.9433 34.1474 25.2386 34.477 25.2123 34.5022C25.0921 34.6177 23.937 34.3299 23.25 34.0133C22.6995 33.7595 22.3266 33.4866 21.8976 33.0231C21.5718 32.6712 21.3053 32.3329 21.3053 32.2713C21.3053 32.0691 22.2004 32.2857 23.0409 32.6913ZM17.8044 32.586C16.9635 33.4833 16.4842 35.4736 16.729 37.0515C16.9541 38.5023 17.6813 39.9053 18.2508 39.9875C19.013 40.0974 19.9931 37.9075 19.9989 36.0821C20.0012 35.3374 19.6728 34.0114 19.3108 33.3031C18.7754 32.2554 18.3182 32.0378 17.8044 32.586ZM18.8278 35.4459C18.9511 36.2765 18.8124 37.3798 18.4941 38.099L18.3035 38.5299L18.1222 38.0769C17.6648 36.9337 17.6642 35.3604 18.1207 34.2194L18.3041 33.7609L18.5116 34.2364C18.6256 34.498 18.7679 35.0422 18.8278 35.4459ZM42.4173 36.8746C42.2365 37.0554 42.2365 39.6943 42.4173 39.8751C42.624 40.0817 43.134 40.0336 43.2615 39.7953C43.4231 39.4932 43.408 37.0391 43.2435 36.8746C43.1718 36.8029 42.9859 36.7442 42.8304 36.7442C42.675 36.7442 42.4891 36.8029 42.4173 36.8746ZM5.67236 37.9617C5.29752 38.3366 5.48733 38.5912 8.01512 41.1037C10.7423 43.8143 11.0244 44.0127 12.466 44.2339C12.896 44.2999 13.7032 44.3552 14.2598 44.3568C16.6189 44.3633 18.0157 44.6419 18.8398 45.2705C19.34 45.6521 19.7894 45.6219 19.938 45.197C20.0272 44.9418 19.9988 44.8529 19.7419 44.5848C18.9125 43.7192 17.7498 43.4124 14.7415 43.2651C12.6462 43.1626 11.9555 43.0618 11.4282 42.7818C11.27 42.6978 10.0648 41.5495 8.74991 40.2302C6.30594 37.7779 6.04698 37.5871 5.67236 37.9617ZM38.1558 41.2326C37.8278 41.3978 37.743 41.8601 37.9946 42.1117C38.1373 42.2544 38.4121 42.2884 39.4209 42.2884C40.8857 42.2884 41.091 42.2141 41.091 41.684C41.091 41.3768 41.038 41.2845 40.8122 41.1986C40.406 41.0442 38.4811 41.0689 38.1558 41.2326ZM44.896 41.1681C44.6888 41.2421 44.4611 41.5265 44.4611 41.7113C44.4611 41.7896 44.559 41.9514 44.6785 42.071C44.8705 42.263 45.0409 42.2884 46.1341 42.2884C47.1723 42.2884 47.412 42.2563 47.6181 42.0894C47.9373 41.8309 47.8415 41.3499 47.4406 41.1975C47.1543 41.0886 45.1821 41.0658 44.896 41.1681ZM42.4771 43.4929C42.3115 43.5894 42.2871 43.7831 42.2885 44.9845C42.2895 45.7438 42.3261 46.4176 42.37 46.4817C42.5244 46.7071 42.8586 46.7521 43.1175 46.5825C43.364 46.421 43.374 46.3625 43.374 45.0749C43.374 43.9153 43.3472 43.7112 43.1752 43.5555C42.949 43.3508 42.7516 43.3331 42.4771 43.4929Z" fill="#AC1B64"/>
<path d="M73.076 21.012C73.1 21.084 73.22 21.228 73.436 21.444C73.676 21.66 73.988 21.948 74.372 22.308C74.78 22.668 75.116 22.98 75.38 23.244C76.004 23.82 76.448 24.252 76.712 24.54C76.976 24.828 77.24 25.236 77.504 25.764C77.768 26.268 77.9 26.796 77.9 27.348V34.62C77.9 35.772 78.116 36.396 78.548 36.492C78.86 36.564 79.016 36.756 79.016 37.068C79.016 37.356 78.86 37.5 78.548 37.5H74.3C73.988 37.5 73.832 37.356 73.832 37.068C73.832 36.828 74.012 36.636 74.372 36.492C74.756 36.324 74.948 35.7 74.948 34.62V27.348C74.948 25.956 74.72 24.876 74.264 24.108C74.168 24.012 73.436 23.172 72.068 21.588V34.62C72.068 35.772 72.284 36.396 72.716 36.492C73.004 36.564 73.148 36.756 73.148 37.068C73.148 37.356 72.992 37.5 72.68 37.5H68.468C68.156 37.5 68 37.32 68 36.96C68 36.768 68.18 36.6 68.54 36.456C68.9 36.336 69.08 35.712 69.08 34.584V14.388C69.08 13.188 68.864 12.54 68.432 12.444C68.144 12.396 68 12.264 68 12.048C68 11.688 68.156 11.508 68.468 11.508H72.68C72.992 11.508 73.148 11.652 73.148 11.94C73.148 12.228 73.004 12.396 72.716 12.444C72.284 12.54 72.068 13.188 72.068 14.388V19.104C72.068 19.464 72.2 19.848 72.464 20.256C73.232 19.704 73.76 19.284 74.048 18.996C74.648 18.468 74.948 17.904 74.948 17.304V14.388C74.948 13.188 74.756 12.552 74.372 12.48C74.012 12.408 73.832 12.228 73.832 11.94C73.832 11.652 73.988 11.508 74.3 11.508H78.548C78.86 11.508 79.016 11.652 79.016 11.94C79.016 12.252 78.86 12.42 78.548 12.444C78.116 12.54 77.9 13.188 77.9 14.388C77.9 15.876 77.804 16.932 77.612 17.556C77.444 18.108 76.976 18.624 76.208 19.104L73.076 21.012ZM90.7582 11.04L90.7942 11.184L90.6862 11.688C90.6142 12.024 90.5782 12.336 90.5782 12.624C90.6742 13.848 91.2502 16.068 92.3062 19.284C93.2662 22.236 93.7462 24.348 93.7462 25.62C93.7462 28.092 93.1582 30.432 91.9822 32.64C90.5902 35.376 88.7302 37.056 86.4022 37.68V36.744C86.4022 35.544 85.8862 33.312 84.8542 30.048C83.8462 26.736 83.3422 24.132 83.3422 22.236C83.3422 19.932 83.9542 17.7 85.1782 15.54C86.6182 13.044 88.4782 11.544 90.7582 11.04ZM85.6822 19.644C85.6822 21.804 86.3662 24.996 87.7342 29.22C88.1662 30.612 88.5382 32.652 88.8502 35.34C89.3782 34.788 89.8702 33.852 90.3262 32.532C90.8062 31.188 91.0462 30.108 91.0462 29.292C91.0462 26.988 90.2782 23.784 88.7422 19.68C88.1422 18.12 87.8422 16.308 87.8422 14.244V13.992C87.2902 14.352 86.7742 15.252 86.2942 16.692C85.8862 17.988 85.6822 18.972 85.6822 19.644ZM108.528 12.516C108.12 12.516 107.916 13.14 107.916 14.388V34.62C107.916 35.772 108.132 36.396 108.564 36.492C108.876 36.564 109.032 36.756 109.032 37.068C109.032 37.356 108.876 37.5 108.564 37.5H104.28C103.968 37.5 103.812 37.356 103.812 37.068C103.812 36.828 103.968 36.636 104.28 36.492C104.736 36.324 104.964 35.7 104.964 34.62V14.388C104.964 13.14 104.748 12.516 104.316 12.516H102.12V16.62C102.072 17.316 101.976 17.664 101.832 17.664C101.52 17.664 101.352 17.508 101.328 17.196C101.112 14.532 100.164 12.948 98.4836 12.444C98.1956 12.396 98.0516 12.264 98.0516 12.048C98.0516 11.688 98.2076 11.508 98.5196 11.508H114.36C114.672 11.508 114.828 11.652 114.828 11.94C114.828 12.18 114.672 12.348 114.36 12.444C112.632 12.948 111.696 14.532 111.552 17.196C111.552 17.508 111.396 17.664 111.084 17.664C110.916 17.664 110.808 17.316 110.76 16.62V12.516H108.528ZM119.627 37.5C119.315 37.5 119.159 37.308 119.159 36.924C119.159 36.756 119.303 36.636 119.591 36.564C120.047 36.444 120.275 35.784 120.275 34.584V14.424C120.275 13.248 120.047 12.6 119.591 12.48C119.303 12.408 119.159 12.252 119.159 12.012C119.159 11.676 119.315 11.508 119.627 11.508H129.707C130.043 11.508 130.211 11.64 130.211 11.904C130.211 12.312 129.995 12.552 129.563 12.624C128.555 12.768 127.739 13.188 127.115 13.884C126.419 14.676 126.071 15.576 126.071 16.584C126.071 17.424 126.623 17.856 127.727 17.88C126.959 17.832 126.575 17.328 126.575 16.368C126.575 15.264 127.079 14.712 128.087 14.712C129.455 14.712 130.139 15.42 130.139 16.836C130.139 17.436 129.911 17.916 129.455 18.276C128.999 18.636 128.435 18.816 127.763 18.816C127.043 18.816 126.431 18.552 125.927 18.024C125.447 17.496 125.207 16.86 125.207 16.116C125.207 15.732 125.327 15.228 125.567 14.604C125.831 13.932 125.963 13.416 125.963 13.056C125.963 12.984 125.903 12.876 125.783 12.732C125.687 12.564 125.579 12.48 125.459 12.48H123.875C123.443 12.48 123.227 13.128 123.227 14.424V21.588C124.211 20.508 125.279 19.968 126.431 19.968C127.655 19.968 128.471 20.604 128.879 21.876C128.927 22.02 128.975 22.272 129.023 22.632C129.071 22.968 129.119 23.256 129.167 23.496C129.239 23.736 129.323 23.892 129.419 23.964L129.815 24.072C129.959 24.12 130.031 24.204 130.031 24.324C130.031 24.54 129.863 24.648 129.527 24.648H125.567C125.231 24.648 125.063 24.54 125.063 24.324C125.063 24.204 125.231 24.084 125.567 23.964C125.903 23.82 126.071 23.64 126.071 23.424C126.071 22.704 125.759 22.344 125.135 22.344C124.463 22.344 123.827 22.644 123.227 23.244V34.584C123.227 35.928 123.491 36.6 124.019 36.6H125.567C126.359 36.552 127.055 36.252 127.655 35.7C128.279 35.124 128.591 34.464 128.591 33.72C128.591 32.64 128.171 32.1 127.331 32.1L126.935 32.136C127.655 32.208 128.015 32.724 128.015 33.684C128.015 34.716 127.547 35.232 126.611 35.232C125.315 35.232 124.667 34.536 124.667 33.144C124.667 32.52 124.895 32.028 125.351 31.668C125.831 31.284 126.407 31.092 127.079 31.092C127.775 31.092 128.363 31.368 128.843 31.92C129.323 32.448 129.563 33.084 129.563 33.828C129.563 35.028 129.479 36.252 129.311 37.5H119.627ZM145.337 11.508C145.673 11.508 145.841 11.664 145.841 11.976C145.841 12.24 145.697 12.408 145.409 12.48C145.049 12.576 144.833 13.224 144.761 14.424V34.62C144.761 35.82 144.977 36.468 145.409 36.564C145.697 36.636 145.841 36.816 145.841 37.104C145.841 37.368 145.673 37.5 145.337 37.5H141.161C140.825 37.5 140.657 37.368 140.657 37.104C140.657 36.816 140.801 36.636 141.089 36.564C141.569 36.444 141.809 35.796 141.809 34.62V18.42C139.649 21.54 138.569 24.288 138.569 26.664V34.584C138.569 35.784 138.797 36.444 139.253 36.564C139.541 36.636 139.685 36.816 139.685 37.104C139.685 37.368 139.529 37.5 139.217 37.5H135.005C134.693 37.5 134.537 37.32 134.537 36.96C134.537 36.768 134.681 36.636 134.969 36.564C135.401 36.42 135.617 35.76 135.617 34.584V26.664C135.617 26.28 135.641 25.92 135.689 25.584C135.761 25.224 135.821 24.912 135.869 24.648C135.941 24.384 136.061 24.072 136.229 23.712C136.421 23.352 136.565 23.088 136.661 22.92C136.757 22.728 136.949 22.44 137.237 22.056C137.549 21.648 137.753 21.372 137.849 21.228C137.969 21.084 138.221 20.772 138.605 20.292C139.013 19.812 139.289 19.488 139.433 19.32C140.129 18.48 140.597 17.892 140.837 17.556C141.077 17.196 141.293 16.752 141.485 16.224C141.701 15.696 141.809 15.108 141.809 14.46C141.809 13.908 141.437 13.416 140.693 12.984C139.973 12.552 139.313 12.336 138.713 12.336C138.089 12.336 137.585 12.528 137.201 12.912C137.417 12.816 137.633 12.768 137.849 12.768C138.257 12.768 138.593 12.948 138.857 13.308C139.145 13.668 139.289 14.076 139.289 14.532C139.289 15.684 138.725 16.26 137.597 16.26C136.325 16.26 135.689 15.516 135.689 14.028C135.689 13.212 136.025 12.516 136.697 11.94C137.369 11.34 138.125 11.04 138.965 11.04C140.069 11.04 141.017 11.4 141.809 12.12V11.508H145.337ZM157.108 27.348C157.108 26.364 156.976 25.668 156.712 25.26C156.64 25.164 156.28 24.9 155.632 24.468C155.008 24.012 154.54 23.592 154.228 23.208V34.62C154.228 35.916 154.492 36.564 155.02 36.564H156.424C156.88 36.564 157.108 35.916 157.108 34.62V27.348ZM161.176 37.068C161.176 37.356 161.02 37.5 160.708 37.5H150.628C150.316 37.5 150.16 37.32 150.16 36.96C150.16 36.72 150.304 36.564 150.592 36.492C151.024 36.396 151.24 35.772 151.24 34.62V14.388C151.24 13.188 151.024 12.54 150.592 12.444C150.304 12.396 150.16 12.288 150.16 12.12C150.16 11.712 150.316 11.508 150.628 11.508H154.84C155.152 11.508 155.308 11.652 155.308 11.94C155.308 12.228 155.164 12.396 154.876 12.444C154.444 12.54 154.228 13.188 154.228 14.388V17.952C154.852 17.328 155.572 17.016 156.388 17.016C157.348 17.016 158.116 17.268 158.692 17.772C159.292 18.252 159.592 18.924 159.592 19.788C159.592 20.412 159.4 20.94 159.016 21.372C158.656 21.804 158.188 22.02 157.612 22.02C156.484 22.02 155.92 21.468 155.92 20.364C155.92 19.86 156.064 19.452 156.352 19.14C156.64 18.804 156.964 18.636 157.324 18.636C157.516 18.636 157.66 18.66 157.756 18.708C157.876 18.732 157.996 18.792 158.116 18.888C158.26 18.96 158.368 19.02 158.44 19.068C158.272 18.252 157.612 17.844 156.46 17.844C155.044 17.844 154.336 18.72 154.336 20.472C154.336 20.904 154.408 21.312 154.552 21.696C154.696 22.056 154.828 22.344 154.948 22.56C155.068 22.776 155.332 23.016 155.74 23.28C156.148 23.52 156.412 23.676 156.532 23.748C156.652 23.82 157 23.988 157.576 24.252C158.176 24.492 158.512 24.624 158.584 24.648C159.568 25.224 160.06 26.124 160.06 27.348V34.62C160.06 35.772 160.276 36.396 160.708 36.492C161.02 36.564 161.176 36.756 161.176 37.068ZM170.578 20.976C170.914 21.432 171.538 22.068 172.45 22.884C173.458 23.772 174.13 24.456 174.466 24.936C175.09 25.776 175.402 26.58 175.402 27.348V34.584C175.402 34.656 175.402 34.764 175.402 34.908C175.426 35.052 175.438 35.16 175.438 35.232C175.438 35.304 175.438 35.4 175.438 35.52C175.462 35.616 175.474 35.7 175.474 35.772C175.498 35.82 175.51 35.892 175.51 35.988C175.534 36.06 175.558 36.12 175.582 36.168C175.606 36.216 175.63 36.264 175.654 36.312C175.678 36.36 175.702 36.408 175.726 36.456C175.75 36.48 175.786 36.492 175.834 36.492C176.29 36.684 176.518 36.864 176.518 37.032C176.518 37.344 176.362 37.5 176.05 37.5H165.97C165.658 37.5 165.502 37.344 165.502 37.032C165.502 36.744 165.646 36.564 165.934 36.492C166.39 36.348 166.618 35.712 166.618 34.584V15.684C166.618 14.388 167.062 13.296 167.95 12.408C168.862 11.496 169.966 11.04 171.262 11.04C172.534 11.04 173.626 11.496 174.538 12.408C175.45 13.32 175.906 14.424 175.906 15.72C175.906 16.848 175.582 17.688 174.934 18.24C174.718 18.432 173.974 18.816 172.702 19.392C171.718 19.824 171.01 20.352 170.578 20.976ZM169.966 20.22L171.406 18.996C171.958 18.444 172.234 17.868 172.234 17.268V13.344C172.234 12.504 171.73 12.084 170.722 12.084C169.93 12.084 169.534 12.504 169.534 13.344V16.548C169.534 18.516 169.678 19.74 169.966 20.22ZM169.57 34.584C169.57 35.304 169.63 35.808 169.75 36.096C169.942 36.432 170.362 36.6 171.01 36.6C171.658 36.6 172.078 36.432 172.27 36.096C172.39 35.808 172.45 35.304 172.45 34.584V27.348C172.45 25.98 172.222 24.888 171.766 24.072L169.57 21.588V34.584ZM191.645 11.508C191.981 11.508 192.149 11.664 192.149 11.976C192.149 12.24 192.005 12.408 191.717 12.48C191.285 12.6 191.069 13.248 191.069 14.424V34.584C191.069 35.76 191.285 36.396 191.717 36.492C192.005 36.564 192.149 36.744 192.149 37.032C192.149 37.344 191.981 37.5 191.645 37.5H187.469C187.133 37.5 186.965 37.344 186.965 37.032C186.965 36.768 187.121 36.588 187.433 36.492C187.889 36.3 188.117 35.664 188.117 34.584V31.668H184.877V34.584C184.877 35.736 185.105 36.372 185.561 36.492C185.849 36.564 185.993 36.744 185.993 37.032C185.993 37.344 185.837 37.5 185.525 37.5H181.313C181.001 37.5 180.845 37.296 180.845 36.888C180.845 36.696 180.989 36.564 181.277 36.492C181.709 36.396 181.925 35.76 181.925 34.584V28.248C181.925 26.352 182.117 24.948 182.501 24.036C182.957 22.932 184.025 21.36 185.705 19.32C186.641 18.216 187.277 17.352 187.613 16.728C187.949 16.104 188.117 15.336 188.117 14.424C188.117 13.728 187.817 13.2 187.217 12.84C186.617 12.456 185.897 12.264 185.057 12.264C184.457 12.264 183.953 12.48 183.545 12.912C183.761 12.816 183.977 12.768 184.193 12.768C184.601 12.768 184.937 12.936 185.201 13.272C185.465 13.608 185.597 14.004 185.597 14.46C185.597 15.66 185.033 16.26 183.905 16.26C182.633 16.26 181.997 15.516 181.997 14.028C181.997 13.212 182.333 12.516 183.005 11.94C183.677 11.34 184.445 11.04 185.309 11.04C186.389 11.04 187.325 11.388 188.117 12.084V11.508H191.645ZM188.117 30.732V18.384C185.957 21.528 184.877 24.276 184.877 26.628V30.732H188.117Z" fill="#AC1B64"/>
</svg>
