<svg width="22" height="33" viewBox="0 0 22 33" fill="none" xmlns="http://www.w3.org/2000/svg">
<path d="M11.583 0.391178C11.6752 0.267381 11.7855 0.168986 11.9073 0.1018C12.0291 0.0346144 12.16 0 12.2922 0C12.4244 0 12.5553 0.0346144 12.6771 0.1018C12.799 0.168986 12.9092 0.267381 13.0015 0.391178C13.1906 0.644928 13.2964 0.985137 13.2964 1.33934C13.2964 1.69355 13.1906 2.03376 13.0015 2.28751L2.39962 16.4972L13.0015 30.7097C13.0969 30.8374 13.1722 30.9883 13.2229 31.154C13.2737 31.3197 13.299 31.4969 13.2974 31.6753C13.2958 31.8538 13.2673 32.0301 13.2135 32.1942C13.1598 32.3583 13.0818 32.5069 12.9841 32.6316C12.891 32.7505 12.7809 32.8442 12.66 32.9074C12.5392 32.9706 12.41 33.002 12.2799 32.9999C12.1498 32.9978 12.0212 32.9622 11.9016 32.8951C11.782 32.828 11.6738 32.7307 11.583 32.6088L0.308833 17.4894C0.110821 17.2239 0 16.8679 0 16.4972C0 16.1265 0.110821 15.7704 0.308833 15.5049L11.583 0.391178V0.391178ZM20.2855 0.391178C20.3777 0.267381 20.488 0.168986 20.6098 0.1018C20.7316 0.0346144 20.8625 0 20.9947 0C21.127 0 21.2578 0.0346144 21.3797 0.1018C21.5015 0.168986 21.6118 0.267381 21.704 0.391178C21.8931 0.644928 21.9989 0.985137 21.9989 1.33934C21.9989 1.69355 21.8931 2.03376 21.704 2.28751L11.1021 16.4972L21.704 30.7097C21.7994 30.8374 21.8747 30.9883 21.9255 31.154C21.9762 31.3197 22.0015 31.4969 21.9999 31.6753C21.9983 31.8538 21.9698 32.0301 21.916 32.1942C21.8623 32.3583 21.7843 32.5069 21.6866 32.6316C21.5935 32.7505 21.4834 32.8442 21.3626 32.9074C21.2417 32.9706 21.1126 33.002 20.9824 32.9999C20.8523 32.9978 20.7238 32.9622 20.6042 32.8951C20.4846 32.828 20.3763 32.7307 20.2855 32.6088L9.01136 17.4894C8.81335 17.2239 8.70253 16.8679 8.70253 16.4972C8.70253 16.1265 8.81335 15.7704 9.01136 15.5049L20.2855 0.391178V0.391178Z" fill="#28BCC6"/>
</svg>
