<svg width="32" height="24" viewBox="0 0 32 24" fill="none" xmlns="http://www.w3.org/2000/svg">
<path d="M30.3929 0H1.60714C0.994754 0 0.5 0.4875 0.5 1.09091V22.9091C0.5 23.5125 0.994754 24 1.60714 24H30.3929C31.0052 24 31.5 23.5125 31.5 22.9091V1.09091C31.5 0.4875 31.0052 0 30.3929 0ZM29.0089 3.77727V21.5455H2.99107V3.77727L2.03616 3.04432L3.39587 1.32273L4.87667 2.45795H27.1268L28.6076 1.32273L29.9673 3.04432L29.0089 3.77727V3.77727ZM27.1268 2.45455L16 10.9773L4.87321 2.45455L3.39241 1.31932L2.0327 3.04091L2.98761 3.77386L14.8064 12.8284C15.1463 13.0886 15.5644 13.2298 15.9948 13.2298C16.4252 13.2298 16.8434 13.0886 17.1833 12.8284L29.0089 3.77727L29.9638 3.04432L28.6041 1.32273L27.1268 2.45455Z" fill="#28BCC6"/>
</svg>
