<svg width="20" height="33" viewBox="0 0 20 33" fill="none" xmlns="http://www.w3.org/2000/svg">
<path fill-rule="evenodd" clip-rule="evenodd" d="M12.2401 0.0385802C11.7957 0.098658 10.7609 0.378526 10.2746 0.570182C7.75473 1.56337 6.11458 3.54949 5.45956 6.40096C5.34333 6.90713 5.3173 7.29741 5.28257 9.05922L5.24182 11.1242L3.4105 11.1565C1.86368 11.1837 1.54817 11.2055 1.37956 11.2967C1.07419 11.4619 0.648861 11.953 0.570702 12.2306C0.525835 12.3901 0.500588 13.5108 0.500392 15.3544L0.5 18.2294L0.669397 18.5649C0.762599 18.7494 0.946516 18.9882 1.07818 19.0956C1.49748 19.4378 1.78134 19.4809 3.61862 19.4809H5.27453V25.6456C5.27453 32.4462 5.25118 32.0573 5.68664 32.5056C5.80169 32.624 6.0136 32.7837 6.15749 32.8605C6.41531 32.998 6.46476 33 9.55852 33C12.6641 33 12.7008 32.9985 12.9658 32.8586C13.2775 32.694 13.6243 32.3256 13.7526 32.0227C13.8268 31.8476 13.8425 30.7307 13.8425 25.6496V19.4889L15.9845 19.4688C18.0304 19.4495 18.1383 19.4424 18.389 19.3099C18.7226 19.1336 18.9845 18.8752 19.1632 18.546C19.2997 18.2945 19.3044 18.2076 19.3248 15.5123C19.3392 13.6207 19.3224 12.6311 19.2721 12.4034C19.1772 11.9731 18.8997 11.5992 18.5053 11.3705L18.1919 11.1887L16.0336 11.1565L13.8752 11.1242L13.8784 9.89812C13.8802 9.22377 13.9037 8.56292 13.9305 8.42953C14.0218 7.97717 14.0708 7.96672 16.292 7.92762C17.9763 7.89793 18.2947 7.87677 18.5189 7.77913C18.8465 7.63658 19.1747 7.32974 19.3586 6.99425C19.4974 6.74097 19.5 6.68379 19.5 3.92905C19.5 1.15599 19.4982 1.11875 19.3554 0.855212C19.1735 0.519783 18.8887 0.236301 18.5954 0.0989807C18.3939 0.00463721 18.0344 -0.0062039 15.4023 0.00237864C13.771 0.00767014 12.348 0.0239963 12.2401 0.0385802ZM17.5551 3.91292L17.5379 5.96176L15.7719 5.99938C14.3759 6.02907 13.9355 6.05965 13.6691 6.14516C12.9465 6.37721 12.3322 6.96398 12.114 7.63058C11.9404 8.16109 11.8683 9.18357 11.8915 10.7891C11.9145 12.3769 11.9377 12.5028 12.2618 12.7921C12.5656 13.0634 12.7894 13.0866 15.1343 13.0895L17.3744 13.0924V15.3187V17.545H15.045C12.8168 17.545 12.7054 17.5507 12.4768 17.6775C12.3454 17.7504 12.1648 17.9152 12.0755 18.0438L11.9131 18.2776L11.8952 24.6869L11.8773 31.0964H9.55852H7.23973L7.22181 24.6869L7.20396 18.2776L7.04156 18.0438C6.95228 17.9152 6.77164 17.7504 6.64024 17.6775C6.41394 17.552 6.29713 17.545 4.43172 17.545H2.46213V15.3187V13.0924L4.34251 13.0895C6.30661 13.0866 6.55894 13.0567 6.85529 12.7921C7.19807 12.486 7.20049 12.4668 7.24386 9.70452C7.28323 7.19745 7.28918 7.10569 7.45263 6.51027C7.72929 5.50243 8.03911 4.85732 8.59171 4.13845C9.41064 3.07299 10.7021 2.31495 12.183 2.03038C12.931 1.88667 12.9513 1.8857 15.3641 1.87441L17.5724 1.86408L17.5551 3.91292Z" fill="#28BCC6"/>
</svg>
