<svg width="32" height="32" viewBox="0 0 32 32" fill="none" xmlns="http://www.w3.org/2000/svg">
<path fill-rule="evenodd" clip-rule="evenodd" d="M7.61648 0.0637812C6.56832 0.183988 5.34099 0.590054 4.40262 1.12714C1.97708 2.5153 0.376619 4.94307 0.0692247 7.70027C-0.0230749 8.52846 -0.0230749 23.4619 0.0692247 24.2901C0.517287 28.309 3.68984 31.4826 7.70759 31.9308C8.53554 32.0231 23.4645 32.0231 24.2924 31.9308C28.3102 31.4826 31.4827 28.309 31.9308 24.2901C32.0231 23.4619 32.0231 8.52846 31.9308 7.70027C31.4827 3.6813 28.3102 0.507791 24.2924 0.059593C23.557 -0.0224203 8.33488 -0.0186071 7.61648 0.0637812ZM24.9409 2.06511C26.2394 2.42335 27.2397 2.99194 28.1195 3.87202C28.9989 4.75167 29.5667 5.75089 29.9263 7.0516L30.0918 7.65007V15.9952V24.3403L29.9263 24.9387C29.5667 26.2395 28.9989 27.2387 28.1195 28.1183C27.2401 28.998 26.2412 29.566 24.9409 29.9257L24.3426 30.0912H16H7.65741L7.05912 29.9257C5.7588 29.566 4.75988 28.998 3.8805 28.1183C3.00113 27.2387 2.43327 26.2395 2.07369 24.9387L1.90822 24.3403V15.9952V7.65007L2.07369 7.0516C2.43283 5.75252 3.00113 4.7516 3.87707 3.8754C4.91467 2.83748 6.28354 2.14674 7.71991 1.93627C7.92613 1.90608 11.7506 1.88558 16.2187 1.8907L24.3426 1.90008L24.9409 2.06511ZM24.655 4.16294C23.1333 4.37279 22.0916 5.85628 22.459 7.29064C22.7206 8.31218 23.3652 8.95922 24.3803 9.21939C26.0965 9.65921 27.7853 8.10065 27.499 6.34124C27.3396 5.36126 26.624 4.53857 25.6861 4.25721C25.4135 4.17545 24.9029 4.12875 24.655 4.16294ZM25.3559 6.15727C25.6914 6.36655 25.7469 6.88939 25.465 7.18375C25.239 7.41972 24.9536 7.47504 24.6659 7.33852C24.229 7.13111 24.135 6.55808 24.4839 6.22934C24.7437 5.98474 25.0399 5.96024 25.3559 6.15727ZM14.7957 7.3399C11.3386 7.81122 8.42225 10.4147 7.53924 13.8179C6.76423 16.8046 7.63154 19.9506 9.83867 22.1584C13.2779 25.5986 18.7221 25.5986 22.1613 22.1584C25.6004 18.7182 25.6004 13.2694 22.1613 9.83268C20.1874 7.86011 17.5433 6.96527 14.7957 7.3399ZM16.9999 9.20982C18.4992 9.43724 19.7762 10.0817 20.8439 11.1498C23.5334 13.8401 23.5334 18.1503 20.8439 20.8406C18.1544 23.5309 13.8455 23.5309 11.156 20.8406C8.46655 18.1503 8.46655 13.8401 11.156 11.1498C12.7111 9.59414 14.8508 8.8839 16.9999 9.20982Z" fill="#28BCC6"/>
</svg>
